<svg xmlns="http://www.w3.org/2000/svg" xmlns:xlink="http://www.w3.org/1999/xlink" width="50" zoomAndPan="magnify" viewBox="0 0 37.5 37.499999" height="50" preserveAspectRatio="xMidYMid meet" version="1.2"><defs><clipPath id="55dc37b81a"><path d="M 0 0 L 37.007812 0 L 37.007812 37.007812 L 0 37.007812 Z M 0 0 "/></clipPath><clipPath id="a0263f4e57"><path d="M 18.503906 0 C 8.285156 0 0 8.285156 0 18.503906 C 0 28.722656 8.285156 37.007812 18.503906 37.007812 C 28.722656 37.007812 37.007812 28.722656 37.007812 18.503906 C 37.007812 8.285156 28.722656 0 18.503906 0 Z M 18.503906 0 "/></clipPath></defs><g id="5ec235abc3"><g clip-rule="nonzero" clip-path="url(#55dc37b81a)"><g clip-rule="nonzero" clip-path="url(#a0263f4e57)"><path style=" stroke:none;fill-rule:nonzero;fill:#664617;fill-opacity:1;" d="M 0 0 L 37.007812 0 L 37.007812 37.007812 L 0 37.007812 Z M 0 0 "/></g></g><g style="fill:#ffffff;fill-opacity:1;"><g transform="translate(4.795436, 29.419592)"><path style="stroke:none" d="M 18.84375 0 L 17.828125 -3.421875 L 9.34375 -3.421875 L 8.3125 0 L 0.359375 0 L 9.203125 -24.234375 L 18.25 -24.234375 L 27.09375 0 Z M 10.953125 -8.84375 L 16.203125 -8.84375 L 13.671875 -17.46875 L 13.53125 -17.46875 Z M 10.953125 -8.84375 "/></g></g></g></svg>